<?xml version="1.0" encoding="utf-8"?>
<svg fill="#ffffff" viewBox="-116.381 -39.464 329.267 133.268" xmlns="http://www.w3.org/2000/svg">
  <path d="M -23.772 -16.161 C -24.238 -16.161 -24.703 -16.274 -25.112 -16.51 C -36.266 -22.266 -45.912 -24.713 -57.475 -24.713 C -68.979 -24.713 -79.901 -21.978 -89.834 -16.51 C -91.228 -15.755 -92.97 -16.274 -93.785 -17.675 C -94.54 -19.072 -94.016 -20.874 -92.623 -21.63 C -81.817 -27.506 -69.965 -30.533 -57.475 -30.533 C -45.096 -30.533 -34.293 -27.8 -22.439 -21.691 C -20.986 -20.938 -20.465 -19.186 -21.219 -17.793 C -21.741 -16.74 -22.729 -16.161 -23.772 -16.161 Z M -106.914 14.383 C -107.495 14.383 -108.076 14.207 -108.599 13.861 C -109.935 12.927 -110.223 11.128 -109.297 9.791 C -103.542 1.646 -96.223 -4.753 -87.508 -9.234 C -69.265 -18.659 -45.908 -18.716 -27.606 -9.293 C -18.892 -4.814 -11.572 1.526 -5.82 9.615 C -4.89 10.892 -5.183 12.753 -6.524 13.687 C -7.858 14.613 -9.655 14.326 -10.586 12.988 C -15.816 5.656 -22.437 -0.099 -30.285 -4.114 C -46.955 -12.667 -68.279 -12.667 -84.895 -4.059 C -92.794 0.014 -99.42 5.835 -104.649 13.16 C -105.113 13.975 -105.983 14.383 -106.914 14.383 Z M -70.601 84.601 C -71.357 84.601 -72.11 84.313 -72.638 83.732 C -77.692 78.667 -80.422 75.412 -84.313 68.37 C -88.323 61.213 -90.417 52.488 -90.417 43.123 C -90.417 25.844 -75.657 11.765 -57.531 11.765 C -39.403 11.765 -24.645 25.844 -24.645 43.123 C -24.645 44.748 -25.927 46.031 -27.549 46.031 C -29.178 46.031 -30.455 44.748 -30.455 43.123 C -30.455 29.044 -42.596 17.582 -57.528 17.582 C -72.459 17.582 -84.604 29.047 -84.604 43.123 C -84.604 51.497 -82.742 59.235 -79.2 65.517 C -75.479 72.21 -72.925 75.063 -68.449 79.596 C -67.347 80.763 -67.347 82.564 -68.449 83.732 C -69.094 84.313 -69.849 84.601 -70.601 84.601 Z M -28.946 73.835 C -35.855 73.835 -41.96 72.097 -46.953 68.659 C -55.611 62.785 -60.783 53.249 -60.783 43.125 C -60.783 41.492 -59.505 40.217 -57.878 40.217 C -56.249 40.217 -54.974 41.492 -54.974 43.125 C -54.974 51.329 -50.79 59.068 -43.704 63.834 C -39.579 66.628 -34.755 67.965 -28.946 67.965 C -27.549 67.965 -25.223 67.793 -22.903 67.386 C -21.332 67.097 -19.823 68.142 -19.531 69.771 C -19.244 71.341 -20.287 72.851 -21.915 73.145 C -25.224 73.78 -28.129 73.835 -28.946 73.835 Z M -40.622 85.823 C -40.856 85.823 -41.144 85.768 -41.382 85.709 C -50.619 83.147 -56.661 79.716 -62.992 73.488 C -71.126 65.402 -75.598 54.643 -75.598 43.122 C -75.598 33.696 -67.583 26.018 -57.704 26.018 C -47.828 26.018 -39.811 33.698 -39.811 43.122 C -39.811 49.347 -34.406 54.406 -27.728 54.406 C -21.051 54.406 -15.643 49.348 -15.643 43.122 C -15.643 21.186 -34.526 3.387 -57.765 3.387 C -74.263 3.387 -89.372 12.579 -96.169 26.831 C -98.436 31.544 -99.597 37.07 -99.597 43.122 C -99.597 47.652 -99.19 54.814 -95.705 64.117 C -95.128 65.634 -95.882 67.322 -97.388 67.846 C -98.9 68.424 -100.588 67.615 -101.108 66.16 C -103.956 58.541 -105.349 50.972 -105.349 43.122 C -105.349 36.136 -104.013 29.8 -101.397 24.272 C -93.672 8.037 -76.53 -2.491 -57.768 -2.491 C -31.333 -2.491 -9.836 17.931 -9.836 43.065 C -9.836 52.486 -17.853 60.166 -27.731 60.166 C -37.61 60.166 -45.628 52.486 -45.628 43.065 C -45.628 36.839 -51.029 31.775 -57.709 31.775 C -64.39 31.775 -69.793 36.837 -69.793 43.065 C -69.793 53.006 -65.96 62.32 -58.931 69.301 C -53.411 74.766 -48.122 77.794 -39.934 80.062 C -38.363 80.472 -37.49 82.097 -37.896 83.613 C -38.182 84.95 -39.403 85.823 -40.622 85.823 Z" style="fill: rgb(0, 200, 81);"/>
  <text style="fill: rgb(255, 198, 1); font-family: Arial, sans-serif; font-size: 30px; white-space: pre;" x="74.073" y="55.913" transform="matrix(1.645285, 0, 0, 1.613453, -122.25805, -45.753876)">Mzansi.ai</text>
</svg>